<svg width="49" height="54" viewBox="0 0 49 54" fill="none" xmlns="http://www.w3.org/2000/svg">
<g clip-path="url(#clip0_61_108)">
<path d="M20.113 0.230469L48.9217 5.48764C48.9217 5.48764 49.1391 18.2824 43.1913 33.0617C37.2435 47.841 29.4435 53.1504 29.4435 53.1504L0.269531 43.7153C0.269531 43.7153 11.4521 34.1584 14.9826 23.3568C18.513 12.5465 20.113 0.230469 20.113 0.230469Z" fill="url(#paint0_linear_61_108)"/>
<path d="M24.2211 11.7783L23.9961 12.6999L40.3747 16.7065L40.5998 15.7849L24.2211 11.7783Z" fill="#E92B2F"/>
<path d="M21.9477 20.4023L21.7227 21.3238L38.1014 25.3304L38.3264 24.4088L21.9477 20.4023Z" fill="#E92B2F"/>
<path d="M18.6166 28.438L18.3916 29.3596L34.7703 33.3662L34.9953 32.4446L18.6166 28.438Z" fill="#E92B2F"/>
<path d="M13.8988 36.875L13.6738 37.7966L30.0524 41.8032L30.2775 40.8815L13.8988 36.875Z" fill="#E92B2F"/>
</g>
<defs>
<linearGradient id="paint0_linear_61_108" x1="0.270749" y1="26.6914" x2="48.9239" y2="26.6914" gradientUnits="userSpaceOnUse">
<stop stop-color="#FF3D41"/>
<stop offset="1" stop-color="#FF6C70"/>
</linearGradient>
<clipPath id="clip0_61_108">
<rect width="49" height="54" fill="white"/>
</clipPath>
</defs>
</svg>
