<svg width="30" height="42" viewBox="0 0 30 42" fill="none" xmlns="http://www.w3.org/2000/svg">
<g clip-path="url(#clip0_61_102)">
<path d="M0.652344 11.3068L17.148 0.540039C17.148 0.540039 23.1654 6.68501 27.0871 16.651C31.0088 26.617 29.661 32.8229 29.661 32.8229L11.061 41.7183C11.061 41.7183 12.1132 31.8742 8.83495 24.972C5.55669 18.0697 0.652344 11.3068 0.652344 11.3068Z" fill="url(#paint0_linear_61_102)"/>
<path d="M17.6846 9.35791L7.83887 14.9886L8.30908 15.8124L18.1548 10.1817L17.6846 9.35791Z" fill="#FFB0B2"/>
<path d="M20.5018 14.4043L10.6572 20.0351L11.1274 20.8587L20.972 15.228L20.5018 14.4043Z" fill="#FFB0B2"/>
<path d="M22.536 19.873L12.6914 25.5037L13.1616 26.3274L23.0062 20.6967L22.536 19.873Z" fill="#FFB0B2"/>
<path d="M24.1385 26.1821L14.2939 31.8128L14.7642 32.6365L24.6088 27.0058L24.1385 26.1821Z" fill="#FFB0B2"/>
</g>
<defs>
<linearGradient id="paint0_linear_61_102" x1="0.654692" y1="21.1367" x2="29.8836" y2="21.1367" gradientUnits="userSpaceOnUse">
<stop stop-color="#FFD2D3"/>
<stop offset="1" stop-color="#FFE6E6"/>
</linearGradient>
<clipPath id="clip0_61_102">
<rect width="30" height="42" fill="white"/>
</clipPath>
</defs>
</svg>
