<svg width="29" height="35" viewBox="0 0 29 35" fill="none" xmlns="http://www.w3.org/2000/svg">
<g clip-path="url(#clip0_61_96)">
<path d="M20.9393 1.10478L1.25232 0.834961C1.25232 0.834961 -0.547688 9.25167 1.46101 19.7747C3.4697 30.2978 7.93058 34.8151 7.93058 34.8151L28.4001 32.3693C28.4001 32.3693 22.261 24.6141 21.3306 17.0243C20.4001 9.43445 20.9393 1.10478 20.9393 1.10478Z" fill="url(#paint0_linear_61_96)"/>
<path d="M16.6246 7.99463L5.29688 8.50424L5.33943 9.45202L16.6672 8.94241L16.6246 7.99463Z" fill="#E82A2F"/>
<path d="M16.9986 14.0698L5.6709 14.5794L5.71346 15.5272L17.0412 15.0176L16.9986 14.0698Z" fill="#E82A2F"/>
<path d="M18.2672 19.7461L6.93945 20.2557L6.98201 21.2035L18.3098 20.6939L18.2672 19.7461Z" fill="#E82A2F"/>
<path d="M20.1715 25.96L8.84375 26.4696L8.88631 27.4174L20.2141 26.9078L20.1715 25.96Z" fill="#E82A2F"/>
</g>
<defs>
<linearGradient id="paint0_linear_61_96" x1="0.513358" y1="17.8316" x2="28.4053" y2="17.8316" gradientUnits="userSpaceOnUse">
<stop stop-color="#FF3D41"/>
<stop offset="1" stop-color="#FF7073"/>
</linearGradient>
<clipPath id="clip0_61_96">
<rect width="29" height="35" fill="white"/>
</clipPath>
</defs>
</svg>
