<svg width="106" height="113" viewBox="0 0 106 113" fill="none" xmlns="http://www.w3.org/2000/svg">
<path opacity="0.9" d="M86.8899 25H33C30.7909 25 29 26.7909 29 29V108.5C29 110.709 30.7909 112.5 33 112.5H67.5C69.7091 112.5 71.5 110.709 71.5 108.5V101.5C71.5 99.2909 73.2909 97.5 75.5 97.5H91C93.2091 97.5 95 95.7091 95 93.5V77.5C95 76.3954 95.8954 75.5 97 75.5H99.4338C102.306 75.5 104.242 72.5638 103.11 69.9243L95.3234 51.7546C95.11 51.2567 95 50.7207 95 50.179V38.3411C95 37.7864 94.8846 37.2378 94.6613 36.7301L90.5512 27.389C89.9124 25.9372 88.4761 25 86.8899 25Z" fill="#ED1F24"/>
<path opacity="0.8" d="M53 0H5C2.23858 0 0 2.23858 0 5V52C0 54.7614 2.23858 57 5 57H53C55.7614 57 58 54.7614 58 52V5C58 2.23858 55.7614 0 53 0Z" fill="#FF989A"/>
<path d="M11 68H0V78H11V68Z" fill="#848B84"/>
</svg>
